<?xml version="1.0" encoding="utf-8"?>
<!-- Generator: Adobe Illustrator 22.0.0, SVG Export Plug-In . SVG Version: 6.00 Build 0)  -->
<svg version="1.1" id="Layer_1" xmlns="http://www.w3.org/2000/svg" xmlns:xlink="http://www.w3.org/1999/xlink" x="0px" y="0px"
	 viewBox="0 0 2800 1800" style="enable-background:new 0 0 2800 1800;" xml:space="preserve">
<style type="text/css">
	.st0{fill:#E2E2E2;}
	.st1{fill:#D64E2C;}
	.st2{fill:#303030;}
	.st3{fill:#F7D49C;}
	.st4{fill:#F27072;}
	.st5{fill:#7B7EBC;}
	.st6{fill:#B5B5B6;}
	.st7{fill:#999999;}
</style>
<g>
	<polygon class="st0" points="1100.5,387.6 878.3,387.6 878.3,346.6 1259.2,346.6 1259.2,387.6 1206.3,387.6 	"/>
</g>
<g>
	<rect x="890.5" y="387.6" class="st0" width="357" height="447.3"/>
</g>
<g>
	<line class="st0" x1="1206.3" y1="387.6" x2="1100.5" y2="387.6"/>
</g>
<g>
	<rect x="201.4" y="1408.9" class="st1" width="196.5" height="82.3"/>
</g>
<g>
	<rect x="397.9" y="1408.9" class="st1" width="196.5" height="82.3"/>
</g>
<g>
	<rect x="299.6" y="1326.6" class="st1" width="196.5" height="82.3"/>
</g>
<g>
	<rect x="397.9" y="1244.4" class="st1" width="196.5" height="82.3"/>
</g>
<g>
	<rect x="299.6" y="1162.1" class="st1" width="196.5" height="82.3"/>
</g>
<g>
	<rect x="201.4" y="1162.1" class="st1" width="98.3" height="82.3"/>
</g>
<g>
	<rect x="201.4" y="1326.6" class="st1" width="98.3" height="82.3"/>
</g>
<g>
	<rect x="496.1" y="1162.1" class="st1" width="196.5" height="82.3"/>
</g>
<g>
	<rect x="397.9" y="1079.8" class="st1" width="196.5" height="82.3"/>
</g>
<g>
	<rect x="496.1" y="1326.6" class="st1" width="196.5" height="82.3"/>
</g>
<g>
	<rect x="201.4" y="1244.4" class="st1" width="196.5" height="82.3"/>
</g>
<g>
	<rect x="201.4" y="1079.8" class="st1" width="196.5" height="82.3"/>
</g>
<g>
	<rect x="594.4" y="1408.9" class="st1" width="98.3" height="82.3"/>
</g>
<g>
	<path class="st2" d="M397.9,1501.1H201.4c-5.5,0-9.9-4.4-9.9-9.9v-82.3c0-5.5,4.4-9.9,9.9-9.9h196.5c5.5,0,9.9,4.4,9.9,9.9v82.3
		C407.8,1496.7,403.4,1501.1,397.9,1501.1z M211.3,1481.3H388v-62.4H211.3V1481.3z"/>
</g>
<g>
	<path class="st2" d="M594.4,1501.1H397.9c-5.5,0-9.9-4.4-9.9-9.9v-82.3c0-5.5,4.4-9.9,9.9-9.9h196.5c5.5,0,9.9,4.4,9.9,9.9v82.3
		C604.3,1496.7,599.9,1501.1,594.4,1501.1z M407.8,1481.3h176.7v-62.4H407.8V1481.3z"/>
</g>
<g>
	<path class="st2" d="M496.1,1418.8H299.6c-5.5,0-9.9-4.4-9.9-9.9v-82.3c0-5.5,4.4-9.9,9.9-9.9h196.5c5.5,0,9.9,4.4,9.9,9.9v82.3
		C506.1,1414.4,501.6,1418.8,496.1,1418.8z M309.5,1399h176.7v-62.4H309.5V1399z"/>
</g>
<g>
	<path class="st2" d="M594.4,1336.5H397.9c-5.5,0-9.9-4.4-9.9-9.9v-82.3c0-5.5,4.4-9.9,9.9-9.9h196.5c5.5,0,9.9,4.4,9.9,9.9v82.3
		C604.3,1332.1,599.9,1336.5,594.4,1336.5z M407.8,1316.7h176.7v-62.4H407.8V1316.7z"/>
</g>
<g>
	<path class="st2" d="M496.1,1254.3H299.6c-5.5,0-9.9-4.4-9.9-9.9v-82.3c0-5.5,4.4-9.9,9.9-9.9h196.5c5.5,0,9.9,4.4,9.9,9.9v82.3
		C506.1,1249.8,501.6,1254.3,496.1,1254.3z M309.5,1234.4h176.7V1172H309.5V1234.4z"/>
</g>
<g>
	<path class="st2" d="M299.6,1254.3h-98.3c-5.5,0-9.9-4.4-9.9-9.9v-82.3c0-5.5,4.4-9.9,9.9-9.9h98.3c5.5,0,9.9,4.4,9.9,9.9v82.3
		C309.5,1249.8,305.1,1254.3,299.6,1254.3z M211.3,1234.4h78.4V1172h-78.4V1234.4z"/>
</g>
<g>
	<path class="st2" d="M299.6,1418.8h-98.3c-5.5,0-9.9-4.4-9.9-9.9v-82.3c0-5.5,4.4-9.9,9.9-9.9h98.3c5.5,0,9.9,4.4,9.9,9.9v82.3
		C309.5,1414.4,305.1,1418.8,299.6,1418.8z M211.3,1399h78.4v-62.4h-78.4V1399z"/>
</g>
<g>
	<path class="st2" d="M692.6,1254.3H496.1c-5.5,0-9.9-4.4-9.9-9.9v-82.3c0-5.5,4.4-9.9,9.9-9.9h196.5c5.5,0,9.9,4.4,9.9,9.9v82.3
		C702.6,1249.8,698.1,1254.3,692.6,1254.3z M506.1,1234.4h176.7V1172H506.1V1234.4z"/>
</g>
<g>
	<path class="st2" d="M594.4,1172H397.9c-5.5,0-9.9-4.4-9.9-9.9v-82.3c0-5.5,4.4-9.9,9.9-9.9h196.5c5.5,0,9.9,4.4,9.9,9.9v82.3
		C604.3,1167.6,599.9,1172,594.4,1172z M407.8,1152.2h176.7v-62.4H407.8V1152.2z"/>
</g>
<g>
	<path class="st2" d="M692.6,1418.8H496.1c-5.5,0-9.9-4.4-9.9-9.9v-82.3c0-5.5,4.4-9.9,9.9-9.9h196.5c5.5,0,9.9,4.4,9.9,9.9v82.3
		C702.6,1414.4,698.1,1418.8,692.6,1418.8z M506.1,1399h176.7v-62.4H506.1V1399z"/>
</g>
<g>
	<path class="st2" d="M397.9,1336.5H201.4c-5.5,0-9.9-4.4-9.9-9.9v-82.3c0-5.5,4.4-9.9,9.9-9.9h196.5c5.5,0,9.9,4.4,9.9,9.9v82.3
		C407.8,1332.1,403.4,1336.5,397.9,1336.5z M211.3,1316.7H388v-62.4H211.3V1316.7z"/>
</g>
<g>
	<path class="st2" d="M397.9,1172H201.4c-5.5,0-9.9-4.4-9.9-9.9v-82.3c0-5.5,4.4-9.9,9.9-9.9h196.5c5.5,0,9.9,4.4,9.9,9.9v82.3
		C407.8,1167.6,403.4,1172,397.9,1172z M211.3,1152.2H388v-62.4H211.3V1152.2z"/>
</g>
<g>
	<path class="st2" d="M692.6,1501.1h-98.3c-5.5,0-9.9-4.4-9.9-9.9v-82.3c0-5.5,4.4-9.9,9.9-9.9h98.3c5.5,0,9.9,4.4,9.9,9.9v82.3
		C702.6,1496.7,698.1,1501.1,692.6,1501.1z M604.3,1481.3h78.4v-62.4h-78.4V1481.3z"/>
</g>
<g>
	<rect x="594.4" y="1244.4" class="st1" width="98.3" height="82.3"/>
</g>
<g>
	<path class="st2" d="M692.6,1336.5h-98.3c-5.5,0-9.9-4.4-9.9-9.9v-82.3c0-5.5,4.4-9.9,9.9-9.9h98.3c5.5,0,9.9,4.4,9.9,9.9v82.3
		C702.6,1332.1,698.1,1336.5,692.6,1336.5z M604.3,1316.7h78.4v-62.4h-78.4V1316.7z"/>
</g>
<g>
	<g>
		<path class="st3" d="M226.3,834.8l0-33.1c-32.8-137.1-33.6-272.7,0-406.8l0-41.4h30.5c103.3-27.5,207.7-28.1,313.3,0h39.8V388
			c38.8,128,35.2,268.6,0,417.2v29.6l-39.8,0c-92.5,28.5-193.8,30.9-306.4,0L226.3,834.8z"/>
	</g>
	<g>
		<path class="st2" d="M421.2,866.9c-51.7,0-104.7-7.4-158.9-22.1h-36.1c-5.5,0-9.9-4.4-9.9-9.9v-31.9
			c-33.1-138.8-33.1-276.4,0-409.2v-40.2c0-5.5,4.4-9.9,9.9-9.9h29.2c104.8-27.7,211.1-27.7,315.9,0h38.5c5.5,0,9.9,4.4,9.9,9.9
			v33.1c36.8,122.5,36.8,263.7,0,419.8v28.5c0,5.5-4.4,9.9-9.9,9.9h-38.3C523.1,859.5,472.9,866.9,421.2,866.9z M236.2,824.9h27.5
			c0.9,0,1.8,0.1,2.6,0.4c107.1,29.4,205.5,29.4,300.8,0.1c0.9-0.3,1.9-0.4,2.9-0.4H600v-19.7c0-0.8,0.1-1.5,0.3-2.3
			c36.4-153.7,36.5-292.3,0.2-412c-0.3-0.9-0.4-1.9-0.4-2.9v-24.6h-29.9c-0.9,0-1.7-0.1-2.6-0.3c-102.3-27.2-205.9-27.2-308.2,0
			c-0.8,0.2-1.7,0.3-2.6,0.3h-20.6V395c0,0.8-0.1,1.6-0.3,2.4c-32.7,130.3-32.7,265.6,0,402.1c0.2,0.8,0.3,1.5,0.3,2.3V824.9z"/>
	</g>
	<g>
		<path class="st4" d="M202.9,645.9h432.4c3.3-43.7,3.2-86.4-0.5-128.1H205.1C201.1,560.4,200.3,603.1,202.9,645.9z"/>
	</g>
	<g>
		<path class="st2" d="M635.3,655.9H202.9c-5.2,0-9.6-4.1-9.9-9.3c-2.6-43.3-1.8-86.9,2.3-129.6c0.5-5.1,4.8-9,9.9-9h429.6
			c5.1,0,9.4,3.9,9.9,9c3.7,41.4,3.9,85.1,0.5,129.7C644.8,651.9,640.5,655.9,635.3,655.9z M212.3,636H626
			c2.4-37.1,2.3-73.5-0.4-108.3H214.2C211.2,563.5,210.5,599.9,212.3,636z"/>
	</g>
	<g>
		<g>
			<path class="st2" d="M317.4,611c-0.9,0-1.9-0.1-2.9-0.2c-1-0.1-2.1-0.5-3.1-0.9c-1-0.5-2-1.1-3-2c-1-0.9-1.8-2-2.5-3.4
				c-0.7-1.4-1.3-3.1-1.7-5.2c-0.4-2.1-0.7-4.5-0.7-7.4v-20.3c0-2.9,0.2-5.3,0.7-7.4c0.4-2,1-3.8,1.8-5.2s1.6-2.5,2.5-3.3
				c1-0.8,2-1.5,3-1.9c1-0.4,2-0.7,3.1-0.9c1-0.1,2-0.2,2.8-0.2c2.3,0,4.2,0.3,5.7,1c1.5,0.6,2.8,1.5,3.7,2.6c0.9,1.1,1.6,2.4,2,3.9
				c0.4,1.5,0.6,3,0.6,4.7c0,1.2-0.1,2.4-0.2,3.4c-0.1,1-0.3,2.2-0.6,3.4h-7v-2.9c0-3.2-0.3-5.5-1-7.1c-0.7-1.6-1.7-2.3-3-2.3
				c-0.8,0-1.5,0.2-2.1,0.5c-0.6,0.3-1.1,0.8-1.5,1.6c-0.4,0.7-0.7,1.7-0.9,3c-0.2,1.2-0.3,2.8-0.3,4.6v26.1c0,1.8,0.1,3.3,0.3,4.5
				c0.2,1.2,0.4,2.1,0.8,2.8c0.4,0.7,0.9,1.2,1.5,1.5c0.6,0.3,1.4,0.5,2.2,0.5c0.6,0,1.1-0.1,1.6-0.4c0.5-0.3,1-0.7,1.4-1.2
				c0.4-0.5,0.7-1.2,0.9-2.1c0.2-0.8,0.4-1.8,0.4-3v-5.6h7.9v5.3c0,4.6-1,8-3.1,10.2C324.3,609.9,321.3,611,317.4,611z"/>
		</g>
		<g>
			<path class="st2" d="M343.3,553.3h21.2v6.8h-12.5v17.1h9.7v6.8h-9.7v19.6h12.9v6.8h-21.5V553.3z"/>
		</g>
		<g>
			<path class="st2" d="M377.9,553.3h11.3l5.5,22.1c0.6,2.5,1,4.8,1.4,7c0.3,2.2,0.7,4.3,1,6.3h0.3c0.3-2,0.6-4.1,1-6.3
				c0.3-2.2,0.8-4.6,1.4-7l5.7-22.1h11.1v57.2h-8.1v-18.9c0-2.9,0-5.7,0.1-8.4c0.1-2.7,0.1-5.1,0.2-7.4c0.1-2.2,0.2-4.2,0.3-5.9
				c0.1-1.7,0.2-3.1,0.3-4.1h-0.6l-8.6,37.4h-5.5l-8.7-37.4h-0.6c0.1,1,0.2,2.4,0.3,4.1c0.1,1.7,0.2,3.7,0.3,5.9
				c0.1,2.2,0.2,4.7,0.2,7.4c0.1,2.7,0.1,5.5,0.1,8.4v18.9h-8.1V553.3z"/>
		</g>
		<g>
			<path class="st2" d="M433.1,553.3h21.2v6.8h-12.5v17.1h9.7v6.8h-9.7v19.6h12.9v6.8h-21.5V553.3z"/>
		</g>
		<g>
			<path class="st2" d="M467.8,553.3h7l13.9,38.3h0.2c-0.1-0.9-0.2-1.9-0.3-3c-0.1-1.1-0.2-2.3-0.3-3.7c-0.1-1.4-0.2-3-0.2-4.7
				c-0.1-1.8-0.1-3.8-0.1-6v-20.9h7.8v57.2h-7.1l-13.8-37.3h-0.3c0.1,1,0.2,2.1,0.3,3.3c0.1,1.2,0.2,2.6,0.3,4.1
				c0.1,1.6,0.2,3.4,0.2,5.5c0.1,2.1,0.1,4.6,0.1,7.5v16.8h-7.7V553.3z"/>
		</g>
		<g>
			<path class="st2" d="M517.7,560.1h-9.2v-6.8h27.1v6.8h-9.2v50.4h-8.7V560.1z"/>
		</g>
	</g>
</g>
<g>
	<path class="st2" d="M1247.5,844.8h-357c-5.5,0-9.9-4.4-9.9-9.9V387.6c0-5.5,4.4-9.9,9.9-9.9h210c5.5,0,9.9,4.4,9.9,9.9
		s-4.4,9.9-9.9,9.9h-200V825h337.2V397.5h-31.4c-5.5,0-9.9-4.4-9.9-9.9s4.4-9.9,9.9-9.9h41.3c5.5,0,9.9,4.4,9.9,9.9v447.3
		C1257.5,840.4,1253,844.8,1247.5,844.8z"/>
</g>
<g>
	<path class="st2" d="M849,691.1c-19.8,0-28.3-10-32-18.4c-16.1-37.3,35.4-119.4,66.4-151.1c3.8-3.9,10.1-4,14-0.2
		c3.9,3.8,4,10.1,0.2,14c-34.3,35.1-72.1,106.9-62.4,129.4c0.8,1.9,2.8,6.5,13.7,6.5c0.2,0,0.5,0,0.7,0
		c43.4-0.8,152.4-147.8,210.9-240.3c2.9-4.6,9.1-6,13.7-3.1c4.6,2.9,6,9.1,3.1,13.7c-0.4,0.6-39.3,62-85.7,122.8
		c-27.4,35.9-52,64.5-73.2,85.2c-28.4,27.7-50.7,41.3-68.4,41.6C849.7,691.1,849.4,691.1,849,691.1z"/>
</g>
<g>
	<path class="st5" d="M1100.8,346.6v133.7c0,14.5,11.8,26.3,26.3,26.3l0,0c14.5,0,26.3-11.8,26.3-26.3v-59.1h26.6
		c14.5,0,26.3-11.8,26.3-26.3v-48.3"/>
</g>
<g>
	<path class="st2" d="M1127.1,516.5c-20,0-36.2-16.2-36.2-36.2V346.6c0-5.5,4.4-9.9,9.9-9.9s9.9,4.4,9.9,9.9v133.7
		c0,9,7.4,16.4,16.4,16.4s16.4-7.4,16.4-16.4v-59.1c0-5.5,4.4-9.9,9.9-9.9h26.6c9,0,16.4-7.4,16.4-16.4v-48.3c0-5.5,4.4-9.9,9.9-9.9
		s9.9,4.4,9.9,9.9v48.3c0,20-16.2,36.2-36.2,36.2h-16.7v49.2C1163.3,500.3,1147,516.5,1127.1,516.5z"/>
</g>
<g>
	<path class="st2" d="M1259.2,397.5h-52.9c-5.5,0-9.9-4.4-9.9-9.9s4.4-9.9,9.9-9.9h43v-21.2h-361v21.2h212.2c5.5,0,9.9,4.4,9.9,9.9
		s-4.4,9.9-9.9,9.9H878.3c-5.5,0-9.9-4.4-9.9-9.9v-41c0-5.5,4.4-9.9,9.9-9.9h380.8c5.5,0,9.9,4.4,9.9,9.9v41
		C1269.1,393.1,1264.6,397.5,1259.2,397.5z"/>
</g>
<g>
	<g>
		<polygon class="st6" points="1740.4,671.8 1740.4,416.2 1623.5,416.2 1623.5,671.8 1468.8,671.8 1468.8,806 1895.1,806 
			1895.1,671.8 		"/>
	</g>
	<g>
		<rect x="1414.5" y="657.5" class="st7" width="54.2" height="162.8"/>
	</g>
	<g>
		<rect x="1895.1" y="657.5" class="st7" width="56.7" height="162.8"/>
	</g>
	<g>
		
			<rect x="1653.3" y="306.2" transform="matrix(-1.836970e-16 1 -1 -1.836970e-16 2069.5503 -1294.3494)" class="st7" width="57.4" height="162.8"/>
	</g>
	<g>
		<path class="st2" d="M1895.1,815.9h-426.3c-5.5,0-9.9-4.4-9.9-9.9V671.8c0-5.5,4.4-9.9,9.9-9.9h144.8V416.2c0-5.5,4.4-9.9,9.9-9.9
			h116.9c5.5,0,9.9,4.4,9.9,9.9v245.6h144.8c5.5,0,9.9,4.4,9.9,9.9V806C1905,811.5,1900.6,815.9,1895.1,815.9z M1478.7,796.1h406.5
			V681.7h-144.8c-5.5,0-9.9-4.4-9.9-9.9V426.1h-97.1v245.6c0,5.5-4.4,9.9-9.9,9.9h-144.8V796.1z"/>
	</g>
	<g>
		<path class="st2" d="M1468.8,830.2h-54.2c-5.5,0-9.9-4.4-9.9-9.9V657.5c0-5.5,4.4-9.9,9.9-9.9h54.2c5.5,0,9.9,4.4,9.9,9.9v162.8
			C1478.7,825.7,1474.3,830.2,1468.8,830.2z M1424.5,810.3h34.4v-143h-34.4V810.3z"/>
	</g>
	<g>
		<path class="st2" d="M1951.8,830.2h-56.7c-5.5,0-9.9-4.4-9.9-9.9V657.5c0-5.5,4.4-9.9,9.9-9.9h56.7c5.5,0,9.9,4.4,9.9,9.9v162.8
			C1961.8,825.7,1957.3,830.2,1951.8,830.2z M1905,810.3h36.9v-143H1905V810.3z"/>
	</g>
	<g>
		<path class="st2" d="M1763.3,426.2h-162.8c-5.5,0-9.9-4.4-9.9-9.9v-57.4c0-5.5,4.4-9.9,9.9-9.9h162.8c5.5,0,9.9,4.4,9.9,9.9v57.4
			C1773.3,421.8,1768.8,426.2,1763.3,426.2z M1610.5,406.4h143v-37.5h-143V406.4z"/>
	</g>
</g>
<g>
	<g>
		<g>
			<path class="st6" d="M2486.1,693.7l51.2,89.4l-91.9-46.7c-3-1.5-5.7-3.4-8.2-5.6l-289.1-260.4l57.4-60.4L2480,685.9
				C2482.4,688.2,2484.4,690.9,2486.1,693.7z"/>
		</g>
		<g>
			
				<rect x="2082.2" y="411.5" transform="matrix(0.6892 -0.7246 0.7246 0.6892 362.2487 1701.561)" class="st6" width="164.6" height="34.1"/>
		</g>
	</g>
	<g>
		<g>
			<path class="st2" d="M2537.3,793.1c-1.5,0-3.1-0.4-4.5-1.1l-91.9-46.7c-3.7-1.9-7.2-4.3-10.3-7.1l-289.1-260.4
				c-2-1.8-3.2-4.3-3.3-7c-0.1-2.7,0.9-5.3,2.7-7.2l57.4-60.4c1.8-1.9,4.4-3.1,7.1-3.1c0,0,0.1,0,0.1,0c2.6,0,5.2,1,7,2.9
				l274.5,275.8c3,3,5.5,6.3,7.6,9.9l51.2,89.4c2.2,3.8,1.6,8.6-1.4,11.8C2542.6,792,2539.9,793.1,2537.3,793.1z M2162.3,469.9
				l281.6,253.5c1.8,1.6,3.8,3,6,4.1l62.2,31.6l-34.7-60.6l0,0c-1.2-2.1-2.7-4.1-4.4-5.8l-267.3-268.5L2162.3,469.9z"/>
		</g>
		<g>
			<path class="st2" d="M2120.1,509.9c-2.5,0-4.9-0.9-6.8-2.7l-24.7-23.5c-1.9-1.8-3-4.3-3.1-6.9c-0.1-2.6,0.9-5.2,2.7-7.1
				l113.5-119.3c1.8-1.9,4.3-3,6.9-3.1c2.7-0.1,5.2,0.9,7.1,2.7l24.7,23.5c4,3.8,4.1,10.1,0.4,14l-113.5,119.3
				C2125.3,508.8,2122.7,509.9,2120.1,509.9z M2109.4,476.1l10.4,9.8l99.8-104.9l-10.4-9.8L2109.4,476.1z"/>
		</g>
	</g>
</g>
<g>
	<g>
		<g>
			<path class="st6" d="M2351.1,739.4l-71.9,73.8l19.7-101.1c0.6-3.3,1.7-6.4,3.1-9.4l171-349.5l73.8,38.6L2357,731.5
				C2355.4,734.4,2353.4,737.1,2351.1,739.4z"/>
		</g>
		<g>
			
				<rect x="2435.5" y="340.3" transform="matrix(0.886 0.4638 -0.4638 0.886 452.8991 -1126.918)" class="st6" width="164.6" height="34.1"/>
		</g>
	</g>
	<g>
		<g>
			<path class="st2" d="M2279.2,823.2c-1.6,0-3.1-0.4-4.6-1.1c-3.9-2-6-6.4-5.1-10.7l19.7-101.1c0.8-4.1,2.1-8.1,4-11.8l171-349.5
				c1.2-2.4,3.3-4.2,5.8-5.1c2.5-0.8,5.3-0.6,7.7,0.6l73.8,38.6c2.4,1.2,4.1,3.4,4.9,6c0.8,2.6,0.5,5.3-0.8,7.7l-189.8,339.7
				c-2,3.6-4.6,7-7.5,10c0,0,0,0,0,0l-71.9,73.8C2284.3,822.1,2281.8,823.2,2279.2,823.2z M2477.4,366.7l-166.5,340.4
				c-1.1,2.2-1.9,4.5-2.3,6.9l-13.3,68.5l48.7-50v0c1.7-1.8,3.2-3.7,4.4-5.8l184.8-330.8L2477.4,366.7z M2351.1,739.4L2351.1,739.4
				L2351.1,739.4z"/>
		</g>
		<g>
			<path class="st2" d="M2582.8,420.6c-1.6,0-3.1-0.4-4.6-1.1l-145.9-76.4c-2.3-1.2-4.1-3.3-4.9-5.8c-0.8-2.5-0.5-5.2,0.7-7.6
				l15.8-30.2c2.5-4.9,8.5-6.7,13.4-4.2l145.9,76.4c2.3,1.2,4.1,3.3,4.9,5.8c0.8,2.5,0.5,5.2-0.7,7.6l-15.8,30.2
				C2589.8,418.7,2586.4,420.6,2582.8,420.6z M2450.3,330.2l128.3,67.2l6.6-12.7L2457,317.5L2450.3,330.2z"/>
		</g>
	</g>
</g>
<g>
	<g>
		
			<rect x="1002.2" y="928.9" transform="matrix(-1.836970e-16 1 -1 -1.836970e-16 2287.7258 86.7635)" class="st1" width="196.5" height="516.7"/>
	</g>
	<g>
		
			<rect x="1002.2" y="1125.4" transform="matrix(-1.836970e-16 1 -1 -1.836970e-16 2484.2292 283.2667)" class="st1" width="196.5" height="516.7"/>
	</g>
	<g>
		<path class="st2" d="M1358.8,1295.4H842.2c-5.5,0-9.9-4.4-9.9-9.9V1089c0-5.5,4.4-9.9,9.9-9.9h516.7c5.5,0,9.9,4.4,9.9,9.9v196.5
			C1368.7,1291,1364.3,1295.4,1358.8,1295.4z M852.1,1275.6h496.8v-176.7H852.1V1275.6z"/>
	</g>
	<g>
		<path class="st2" d="M1358.8,1491.9H842.2c-5.5,0-9.9-4.4-9.9-9.9v-196.5c0-5.5,4.4-9.9,9.9-9.9h516.7c5.5,0,9.9,4.4,9.9,9.9V1482
			C1368.7,1487.5,1364.3,1491.9,1358.8,1491.9z M852.1,1472.1h496.8v-176.7H852.1V1472.1z"/>
	</g>
	<g>
		<g>
			<rect x="898.8" y="1126.4" class="st2" width="19.8" height="121.7"/>
		</g>
		<g>
			<rect x="975.5" y="1126.4" class="st2" width="19.8" height="121.7"/>
		</g>
		<g>
			<rect x="1052.2" y="1126.4" class="st2" width="19.8" height="121.7"/>
		</g>
		<g>
			<rect x="1128.9" y="1126.4" class="st2" width="19.8" height="121.7"/>
		</g>
		<g>
			<rect x="1205.6" y="1126.4" class="st2" width="19.8" height="121.7"/>
		</g>
		<g>
			<rect x="1282.3" y="1126.4" class="st2" width="19.8" height="121.7"/>
		</g>
	</g>
	<g>
		<g>
			<rect x="898.8" y="1322.9" class="st2" width="19.8" height="121.7"/>
		</g>
		<g>
			<rect x="975.5" y="1322.9" class="st2" width="19.8" height="121.7"/>
		</g>
		<g>
			<rect x="1052.2" y="1322.9" class="st2" width="19.8" height="121.7"/>
		</g>
		<g>
			<rect x="1128.9" y="1322.9" class="st2" width="19.8" height="121.7"/>
		</g>
		<g>
			<rect x="1205.6" y="1322.9" class="st2" width="19.8" height="121.7"/>
		</g>
		<g>
			<rect x="1282.3" y="1322.9" class="st2" width="19.8" height="121.7"/>
		</g>
	</g>
</g>
<g>
	<g>
		<path class="st6" d="M1576.3,1154.1c0,0,72.4-43.1,143.8-47.1c71.4-4,107.1-33.7,182.5-21.8c75.4,11.9,123,68.9,123,68.9H1576.3z"
			/>
	</g>
	<g>
		<polygon class="st4" points="1541,1154.1 2058.9,1154.1 1960.5,1400.9 1600.2,1318.7 		"/>
	</g>
	<g>
		<path class="st2" d="M1960.5,1410.9c-0.7,0-1.5-0.1-2.2-0.2l-360.3-82.3c-3.3-0.8-6-3.1-7.1-6.3l-59.2-164.5
			c-1.1-3-0.6-6.4,1.2-9.1c1.9-2.6,4.9-4.2,8.1-4.2h517.9c3.3,0,6.4,1.6,8.2,4.4c1.8,2.7,2.2,6.2,1,9.2l-98.4,246.8
			C1968.2,1408.5,1964.5,1410.9,1960.5,1410.9z M1607.7,1310.2l346.7,79.2l89.8-225.3h-489.1L1607.7,1310.2z"/>
	</g>
	<g>
		<path class="st2" d="M1630.9,1475.3h-52.6c-5.5,0-9.9-4.4-9.9-9.9v-149.5c0-5.5,4.4-9.9,9.9-9.9s9.9,4.4,9.9,9.9v139.6h36.1
			l50.9-119.5c2.1-5,8-7.4,13-5.2c5,2.1,7.4,8,5.2,13l-53.5,125.5C1638.5,1473,1634.9,1475.3,1630.9,1475.3z"/>
	</g>
	<g>
		<path class="st2" d="M2069.3,1436.3c-0.7,0-1.5-0.1-2.2-0.2l-528.3-119c-5.3-1.2-8.7-6.5-7.5-11.9c1.2-5.3,6.5-8.7,11.9-7.5
			l505.7,113.9l-59.5-99.1c-2.8-4.7-1.3-10.8,3.4-13.6c4.7-2.8,10.8-1.3,13.6,3.4l71.5,119c2,3.4,1.9,7.7-0.5,10.9
			C2075.4,1434.8,2072.4,1436.3,2069.3,1436.3z"/>
	</g>
	<g>
		
			<ellipse transform="matrix(0.9239 -0.3827 0.3827 0.9239 -388.3521 900.455)" class="st6" cx="2069.3" cy="1426.4" rx="56.5" ry="56.5"/>
	</g>
	<g>
		<path class="st2" d="M2069.3,1492.9c-36.6,0-66.4-29.8-66.4-66.4c0-36.6,29.8-66.4,66.4-66.4c36.6,0,66.4,29.8,66.4,66.4
			C2135.7,1463.1,2105.9,1492.9,2069.3,1492.9z M2069.3,1379.8c-25.7,0-46.6,20.9-46.6,46.6c0,25.7,20.9,46.6,46.6,46.6
			c25.7,0,46.6-20.9,46.6-46.6C2115.9,1400.7,2095,1379.8,2069.3,1379.8z"/>
	</g>
	<g>
		<path class="st2" d="M1576.3,1164c-3.4,0-6.7-1.7-8.5-4.8c-2.8-4.7-1.3-10.8,3.5-13.6c3-1.8,75.4-44.4,148.4-48.4
			c27.8-1.5,50.2-7.2,71.9-12.6c33.8-8.5,65.6-16.5,112.7-9.1c78.2,12.3,127,69.9,129,72.3c3.5,4.2,3,10.5-1.3,14
			c-4.2,3.5-10.5,3-14-1.3c-0.4-0.5-46.3-54.3-116.9-65.4c-43-6.8-73,0.7-104.7,8.7c-22.6,5.7-46,11.6-75.6,13.2
			c-68.2,3.8-138.6,45.3-139.3,45.7C1579.8,1163.6,1578.1,1164,1576.3,1164z"/>
	</g>
	<g>
		<path class="st2" d="M1541,1164c-4.1,0-7.9-2.5-9.3-6.6l-17.8-50.4h-51.5c-5.5,0-9.9-4.4-9.9-9.9c0-5.5,4.4-9.9,9.9-9.9h58.5
			c4.2,0,7.9,2.6,9.3,6.6l20.2,57c1.8,5.2-0.9,10.8-6,12.7C1543.2,1163.9,1542.1,1164,1541,1164z"/>
	</g>
</g>
<g>
	<g>
		<g>
			<polygon class="st6" points="2544.4,1000.3 2593.8,1000.3 2593.8,1040.8 2563.6,1040.8 2497.9,1177.1 2413,1177.1 2328,1177.1 
				2262.3,1040.8 2232.1,1040.8 2232.1,1000.3 2281.5,1000.3 2350.4,1126.8 2413,1126.8 2470.7,1126.8 			"/>
		</g>
		<g>
			<path class="st6" d="M2372.9,1177.1v117.5l0,0c-45.3,0-82,36.7-82,82v119.3h96.6v-117.8h0c41.2,0,74.6-33.4,74.6-74.6v-126.3"/>
		</g>
	</g>
	<g>
		<g>
			<path class="st2" d="M2497.9,1187h-170c-3.8,0-7.3-2.2-8.9-5.6l-63-130.7h-23.9c-5.5,0-9.9-4.4-9.9-9.9v-40.5
				c0-5.5,4.4-9.9,9.9-9.9h49.4c3.6,0,7,2,8.7,5.2l66,121.4H2465l70.8-121.6c1.8-3.1,5-4.9,8.6-4.9h49.4c5.5,0,9.9,4.4,9.9,9.9v40.5
				c0,5.5-4.4,9.9-9.9,9.9h-23.9l-63,130.7C2505.2,1184.9,2501.7,1187,2497.9,1187z M2334.2,1167.2h157.5l63-130.7
				c1.7-3.4,5.1-5.6,8.9-5.6h20.2v-20.7h-33.8l-70.8,121.6c-1.8,3.1-5,4.9-8.6,4.9h-120.3c-3.6,0-7-2-8.7-5.2l-66-121.4h-33.6v20.7
				h20.2c3.8,0,7.3,2.2,8.9,5.6L2334.2,1167.2z"/>
		</g>
		<g>
			<path class="st2" d="M2387.6,1505.8H2291c-5.5,0-9.9-4.4-9.9-9.9v-119.3c0-47.3,35.9-86.4,82-91.3v-108.1c0-5.5,4.4-9.9,9.9-9.9
				s9.9,4.4,9.9,9.9v117.5c0,5.5-4.4,9.9-9.9,9.9c-39.7,0-72,32.3-72,72V1486h76.8v-107.9c0-5.5,4.4-9.9,9.9-9.9
				c35.7,0,64.7-29,64.7-64.7v-126.3c0-5.5,4.4-9.9,9.9-9.9c5.5,0,9.9,4.4,9.9,9.9v126.3c0,43.3-32.7,79-74.6,84v108.5
				C2397.5,1501.4,2393,1505.8,2387.6,1505.8z"/>
		</g>
	</g>
</g>
</svg>
